<?xml version="1.0" encoding="utf-8"?>
<!-- Generator: Adobe Illustrator 19.2.1, SVG Export Plug-In . SVG Version: 6.00 Build 0)  -->
<svg version="1.1" id="Ebene_1" xmlns="http://www.w3.org/2000/svg" xmlns:xlink="http://www.w3.org/1999/xlink" x="0px" y="0px"
	 viewBox="0 0 157.1 38.3" style="enable-background:new 0 0 157.1 38.3;" xml:space="preserve">
<g>
	<g>
		<path d="M0,1.1h7.6v29.7h18.1v6.5H0V1.1z"/>
	</g>
	<g>
		<path d="M63.9,34.1c-2.7,2.8-6.7,4.2-11.9,4.2s-9.1-1.4-11.9-4.2c-3.7-3.5-5.5-8.4-5.5-14.9c0-6.6,1.8-11.6,5.5-14.9
			C42.9,1.4,46.8,0,52,0s9.1,1.4,11.9,4.2c3.7,3.3,5.5,8.3,5.5,14.9C69.3,25.7,67.5,30.7,63.9,34.1z M59.1,28.6
			c1.8-2.2,2.6-5.4,2.6-9.4c0-4.1-0.9-7.2-2.6-9.4S55,6.4,52,6.4s-5.4,1.1-7.2,3.3c-1.8,2.2-2.7,5.4-2.7,9.4s0.9,7.2,2.7,9.4
			s4.2,3.3,7.2,3.3C55,31.9,57.4,30.8,59.1,28.6z"/>
	</g>
	<g>
		<path d="M104.7,12.4c-0.6-2.5-2-4.2-4.2-5.2c-1.2-0.5-2.6-0.8-4.2-0.8c-2.9,0-5.3,1.1-7.2,3.3c-1.9,2.2-2.8,5.5-2.8,9.9
			c0,4.4,1,7.6,3,9.4c2,1.8,4.3,2.8,6.9,2.8c2.5,0,4.6-0.7,6.2-2.2c1.6-1.5,2.6-3.4,3-5.7h-8.4v-6h15.1v19.4h-5l-0.8-4.5
			c-1.5,1.7-2.8,2.9-3.9,3.6c-2,1.2-4.5,1.8-7.4,1.8c-4.8,0-8.7-1.7-11.8-5c-3.2-3.3-4.8-7.9-4.8-13.7c0-5.9,1.6-10.6,4.8-14.1
			c3.2-3.5,7.5-5.3,12.8-5.3c4.6,0,8.3,1.2,11.1,3.5s4.4,5.2,4.8,8.7C112.1,12.4,104.7,12.4,104.7,12.4z"/>
	</g>
	<g>
		<path d="M151.6,34.1c-2.7,2.8-6.7,4.2-11.9,4.2c-5.2,0-9.1-1.4-11.9-4.2c-3.7-3.5-5.5-8.4-5.5-14.9c0-6.6,1.8-11.6,5.5-14.9
			c2.7-2.8,6.7-4.2,11.9-4.2c5.2,0,9.1,1.4,11.9,4.2c3.7,3.3,5.5,8.3,5.5,14.9C157.1,25.7,155.2,30.7,151.6,34.1z M146.8,28.6
			c1.8-2.2,2.6-5.4,2.6-9.4c0-4.1-0.9-7.2-2.6-9.4s-4.1-3.3-7.1-3.3s-5.4,1.1-7.2,3.3c-1.8,2.2-2.7,5.4-2.7,9.4s0.9,7.2,2.7,9.4
			s4.2,3.3,7.2,3.3S145.1,30.8,146.8,28.6z"/>
	</g>
</g>
</svg>
